/* XPM */
static char *d09c01a61d19460cfde721713a996e87LROZhkaPSExFwxak[] = {
/* columns rows colors chars-per-pixel */
"64 64 10 1 ",
"  c None",
". c #3C5956",
"X c #397B44",
"o c #7A444A",
"O c #A05B53",
"+ c #BF7958",
"@ c #71AA34",
"# c #B6D53C",
"$ c #EEA160",
"% c #DFF6F5",
/* pixels */
"                                                                ",
"                                                                ",
"                                                                ",
"                                                                ",
"                            $$$$$$$$                            ",
"                            $$$$$$$$                            ",
"                          $$$$$$$$$$++                          ",
"                          $$$$$$$$$$++                          ",
"                          ++$$$$++++oo                          ",
"                          ++$$$$++++oo                          ",
"                          ++++OOOOoooo                          ",
"                          ++++OOOOoooo                          ",
"                          OO++OOoooooo                          ",
"                          OO++OOoooooo                          ",
"                          OOOOOOoooooo                          ",
"                          OOOOOOoooooo                          ",
"                      %%%%OOOOoooooooo%%%%                      ",
"                      %%%%OOOOoooooooo%%%%                      ",
"                %%%%%%    %%OOOOoooo%%    %%%%%%                ",
"                %%%%%%    %%OOOOoooo%%    %%%%%%                ",
"          %%%%%%        %%OO%%%%%%%%oo%%        %%%%%%          ",
"          %%%%%%        %%OO%%%%%%%%oo%%        %%%%%%          ",
"      %%%%              %%  OOOOoooo  %%              %%%%      ",
"      %%%%              %%  OOOOoooo  %%              %%%%      ",
"      %%  %%%%%%          %%  oooo  %%          %%%%%%  %%      ",
"      %%  %%%%%%          %%  oooo  %%          %%%%%%  %%      ",
"      %%        %%%%%%%%                %%%%%%%%        %%      ",
"      %%        %%%%%%%%                %%%%%%%%        %%      ",
"      %%  ##%%##########%%%%%%%%%%%%%%%%####@@@@@@@@@@  %%      ",
"      %%  ##%%##########%%%%%%%%%%%%%%%%####@@@@@@@@@@  %%      ",
"      %%  XX%%%%%%########################@@@@@@@@@@..  %%      ",
"      %%  XX%%%%%%########################@@@@@@@@@@..  %%      ",
"      %%  XX%%%%%%########################@@@@@@..%%..  %%      ",
"      %%  XX%%%%%%########################@@@@@@..%%..  %%      ",
"      %%  XXXX%%%%XXXXXX################XXXX....%%%%..  %%      ",
"      %%  XXXX%%%%XXXXXX################XXXX....%%%%..  %%      ",
"      %%  XXXXXXXXXXXXXXXXXXXXXXXXXXXXXXXX......%%%%..  %%      ",
"      %%  XXXXXXXXXXXXXXXXXXXXXXXXXXXXXXXX......%%%%..  %%      ",
"      %%  XX%%XXXXXXXXXXXXXXXXXXXXXXXX..........%%%%..  %%      ",
"      %%  XX%%XXXXXXXXXXXXXXXXXXXXXXXX..........%%%%..  %%      ",
"      %%  XX%%%%%%XXXXXXXXXXXXXX................%%....  %%      ",
"      %%  XX%%%%%%XXXXXXXXXXXXXX................%%....  %%      ",
"      %%  XXXXXX%%XXXXXXXX............................  %%      ",
"      %%  XXXXXX%%XXXXXXXX............................  %%      ",
"      %%  XX%%XXXX................................%%..  %%      ",
"      %%  XX%%XXXX................................%%..  %%      ",
"      %%    %%%%%%%%..........................%%%%      %%      ",
"      %%    %%%%%%%%..........................%%%%      %%      ",
"      %%%%        %%%%%%%%%%............  %%%%        %%%%      ",
"      %%%%        %%%%%%%%%%............  %%%%        %%%%      ",
"      %%%%%%%%%%          %%%%  %%  %%          %%%%%%%%%%      ",
"      %%%%%%%%%%          %%%%  %%  %%          %%%%%%%%%%      ",
"          %%%%%%%%%%%%%%                %%%%%%%%%%%%%%          ",
"          %%%%%%%%%%%%%%                %%%%%%%%%%%%%%          ",
"                %%%%%%%%%%%%%%%%%%%%%%%%%%%%%%%%                ",
"                %%%%%%%%%%%%%%%%%%%%%%%%%%%%%%%%                ",
"                        %%%%%%%%%%%%%%%%                        ",
"                        %%%%%%%%%%%%%%%%                        ",
"                                                                ",
"                                                                ",
"                                                                ",
"                                                                ",
"                                                                ",
"                                                                "
};
