/* XPM */
static char *_96017ab9e714e1dc40ccfa196ee4793FqgXUSrcZldjDMtH[] = {
/* columns rows colors chars-per-pixel */
"64 64 11 1 ",
"  c None",
". c black",
"X c #D3D3D3",
"o c #180F26",
"O c #070036",
"+ c #070038",
"@ c #3700B3",
"# c #222557",
"$ c #1A0060",
"% c #2A3E91",
"& c gray86",
/* pixels */
"                                                                ",
"                                                                ",
"                                                                ",
"                                                                ",
"                                                                ",
"                                                                ",
"                                                                ",
"                                                                ",
"                                                                ",
"                                                                ",
"                            X        X                          ",
"                            XX      XX                          ",
"                            X#X    X#X                          ",
"                            X%X    X%X                          ",
"                            X%XXXXXX%X                          ",
"                             XX@###XX                           ",
"                            X@@####@@X                          ",
"                           X$X@@##@@X$X                         ",
"                   XXX    X@X.X@@@@X.X@X    XXX                 ",
"                XXX%%X    X@X..X@@X..X@X    X%%XXX              ",
"              XX%%%@@@X   X@@XX@@@@XX@@X   X@@@%%%XX            ",
"             X%%@@@@#@X   X+@@@@@@@@@@+X   X@#@@@@%%X           ",
"             X%@##@#@#@X  oO+@XXXXXX@+OX  X@#@#@##@%X           ",
"            X%@#@@##@@@@XX X++@&@@&@++X XX@@@@##@@#@%X          ",
"            X%###@##@#@#@@XXX++@@@+++XXX@@#@#@##@###%X          ",
"            X@@@#@##@###@#@X@XX++++XX@X@#@###@##@#@@@X          ",
"            X+++@@@@@@#@#@#X@@@XXXX@@#X#@#@#@@@@@@+++X          ",
"            XXXXX+++++@@@@#X#@@@@@@@##X#@@@@+++++XXXXX          ",
"                 XXXXX+++++X#@@@@@@###X+++++XXXXX               ",
"                      XXXXXX##@@@@@###XXXXXX                    ",
"                           X@###@###@#X                         ",
"                            X@####@#@X                          ",
"                            X@@@@@@#+X                          ",
"                            X+@+XX+++X                          ",
"                            X++X  X++X                          ",
"                            X+X    X+X                          ",
"                            &X&    &X&                          ",
"                            & &    & &                          ",
"                                                                ",
"                                                                ",
"                                                                ",
"                                                                ",
"                                                                ",
"                                                                ",
"                                                                ",
"                                                                ",
"                                                                ",
"                                                                ",
"                                                                ",
"                                                                ",
"                                                                ",
"                                                                ",
"                                                                ",
"                                                                ",
"                                                                ",
"                                                                ",
"                                                                ",
"                                                                ",
"                                                                ",
"                                                                ",
"                                                                ",
"                                                                ",
"                                                                ",
"                                                                "
};
