/* XPM */
static char *_c8fdcc83f7143e3af7356be46e795f0k06mFop7CR9BVmvs[] = {
/* columns rows colors chars-per-pixel */
"64 64 11 1 ",
"  c None",
". c black",
"X c #D3D3D3",
"o c #180F26",
"O c #070036",
"+ c #070038",
"@ c #3700B3",
"# c #222557",
"$ c #1A0060",
"% c #2A3E91",
"& c gray86",
/* pixels */
"                                                                ",
"                                                                ",
"                                                                ",
"                                                                ",
"                                                                ",
"                                                                ",
"                                                                ",
"                                                                ",
"                                                                ",
"                                                                ",
"                          X        X                            ",
"                          XX      XX                            ",
"                          X$X    X$X                            ",
"                          X*X    X*X                            ",
"                          X*XXXXXX*X                            ",
"                           XX@$$$XX                             ",
"                          X@@$$$$@@X                            ",
"                         X%X@@$$@@X%X                           ",
"                        X@X.X@@@@X.X@X                          ",
"                        X@X..X@@X..X@X                          ",
"                        X@@XX@@@@XX@@X                          ",
"                        X+@@@@@@@@@@+X                          ",
"                        X++@XXXXXX@++X                          ",
"                       XXX++@=@@=@++XXX                         ",
"                    XXX**XX++@@@+++XX**XXX                      ",
"                  XX***@$X@XX++++XX@X$@***XX                    ",
"                 X**@$@@$X@@@XXXX@@$X$@@$@**X                   ",
"                X*$$@$$@$X$@@@@@@@$$X$@$$@$$*X                  ",
"               X**$$@$$@$X$@@@@@@$$$X$@$$@$$**X                 ",
"              X*$@$$@@$@#X$$@@@@@$$$X#@$@@$$@$*X                ",
"              X*$$@@XX@@oX@$$$@$$$@$Xo@@XX@@$$*X                ",
"             X*@$$$X  XX  X@$$$$@$@X  XX  X$$$@*X               ",
"             X*$@@@X      X@@@@@@$+X      X@@@$*X               ",
"            X*@$$$$X      X+@+XX+++X      X$$$$@*X              ",
"            X**@@@X       X++X  X++X       X@@@**X              ",
"            X*$@$X        X+X    X+X        X$@$*X              ",
"            O*$@$X        =X=    =X=        X$@$*X              ",
"             X@$X         = =    = =         X$@X               ",
"             X@@X                            X@@X               ",
"             O++X                            X++X               ",
"             &+X                              X+                ",
"              X                                X                ",
"                                                                ",
"                                                                ",
"                                                                ",
"                                                                ",
"                                                                ",
"                                                                ",
"                                                                ",
"                                                                ",
"                                                                ",
"                                                                ",
"                                                                ",
"                                                                ",
"                                                                ",
"                                                                ",
"                                                                ",
"                                                                ",
"                                                                ",
"                                                                ",
"                                                                ",
"                                                                ",
"                                                                ",
"                                                                "
};
