/* XPM */
static char *c815d2ab0cbe4b62b5cd2b41292abb86qyrJrkqTC1SL67iq[] = {
/* columns rows colors chars-per-pixel */
"64 64 10 1 ",
"  c None",
". c black",
"X c #181818",
"o c #222222",
"O c #2C2C2C",
"+ c #4C4C4C",
"@ c gray31",
"# c #797979",
"$ c #8E8E8E",
"% c gray59",
/* pixels */
"            XXXXXXXXXXXXXXXXXXXX.XXXXXXXXXXXXXXXXXXX            ",
"            Xooooooooooooooooooo.ooooooooooooooooooX            ",
"            Xooooooooooooooooooo.ooooooooooooooooooX            ",
"        XXXXXooooooooooooooooooo.ooooooooooooooooooXXXXX        ",
"        Xooooooooooooooooooooooo.ooooooooooooooooooooooX        ",
"     XXXXooooooooooooooooooooooo.ooooooooooooooooooooooXXXX     ",
"     Xoooooooooooooooooooooooooo.oooooooooooooooooooooooooX     ",
"     Xoooooooooooooooooooooooooo.oooooooooooooooooooooooooX     ",
"    XXoooooooooooooooo$$$$$$$$$$.$$$$$$$$$$oooooooooooooooXX    ",
"    Xoooooooooooooo+$$$$$$$$$$$$.$$$$$$$$$$$$+oooooooooooooX    ",
"    Xoooooooooooooo+$$$$$$$$$$$$.$$$$$$$$$$$$+oooooooooooooX    ",
"    Xoooooooooooooo+$$$$$$$$$$$$.$$$$$$$$$$$$+oooooooooooooX    ",
" XXXXoooooooo$$$$$++$$$$$$$$$$$$.$$$$$$$$$$$$++$$$$ooooooooXXXX ",
" Xooooooooooo$$$$$++$$$$$$$$$$$$.$$$$$$$$$$$$++$$$$oooooooooooX ",
" Xooooooooooo$$$$$++$$$$$$$$$$$$.$$$$$$$$$$$$++$$$$oooooooooooX ",
" Xooooooooo+$$$$$$++$$$$$$$$$$$$.$$$$$$$$$$$$++$$$$$+oooooooooX ",
" Xooooooooo+$$$$$$++$$$$$$$$$$$$.$$$$$$$$$$$$++$$$$$+oooooooooX ",
" Xooooooooo+$$$$$$++$$$$$$$$$$$$.$$$$$$$$$$$$++$$$$$+oooooooooX ",
"#Xooooooooo+$$$$$$++$$$$$$$$$$$$.$$$$$$$$$$$$++$$$$$+oooooooooX#",
"#Xooooooooo+$$$$$$++$$$$$$$$$$$$.$$$$$$$$$$$$++$$$$$+oooooooooX#",
"#Xoooooo$+++$$$$$$++$$$$$$$$$$$$.$$$$$$$$$$$$++$$$$$+++$ooooooX#",
"+Xoooooo$+++$$$$$$++$$$$$$$$$$$$.$$$$$$$$$$$$++$$$$$+++$ooooooX+",
"@Xoooooo$+++$$$$$$++$$$$$$$$$$$$.$$$$$$$$$$$$++$$$$$+++$ooooooX@",
"@Xoooooo$+++$$$$$$++$$$$$$$$$$$$.$$$$$$$$$$$$++$$$$$+++$ooooooX@",
"@Xoooooo$+++$$$$$$++$$$$$$$$$$$$.$$$$$$$$$$$$++$$$$$+++$ooooooX+",
"@Xooo$$$$+++$$$$$$++$$$$$$$$$$$$.$$$$$$$$$$$$++$$$$$+++$$%%oooX+",
"@Xooo$$$$+++$$$$$$++$$$$$$$$$$$$.$$$$$$$$$$$$++$$$$$+++$$$$oooX@",
"@Xooo$$$$+++$$$$$$++$$$$$$$$$$$$.$$$$$$$$$$$$++$$$$$+++$$$$XooX@",
"@Xooo%$$$+++$$$$$$++$$$$$$$$$$$$.$$$$$$$$$$$$++$$$$$+++$$$%oooX@",
"@XooX$$$$+++$$$$$$++$$$$$$$$$$$$.$$$$$$$$$$$$++$$$$$+++$$$$oooX@",
"@Xooo$$$$+++$$$$$$++$$$$$$$$$$$$.$$$$$$$$$$$$++$$$$$+++$$$$XooX@",
"@Xooo%$$$+++$$$$$$++$$$$$$$$$$$$.$$$$$$$$$$$$++$$$$$+++$$$%oooX@",
"@Xooo$$$$+++$$$$$$++$$$$$$$$$$$$.$$$$$$$$$$$$++$$$$$+++$$$$oooX+",
"................................................................",
"....%%%%%%%%%%%%%%%%%%%%%%%%%%%%.%%%%%%%%%%%%%%%%%%%%%%%%%%%....",
"....%%%%%%%%%%%%%%%%%%%%%%%%%%%%.%%%%%%%%%%%%%%%%%%%%%%%%%%%....",
"....%%%%%%%%%%%%%%%%%%%%%%%%%%%%.%%%%%%%%%%%%%%%%%%%%%%%%%%%....",
"................................................................",
"@XOO$$$$$+++$$$$$$++$$$$$$$$$$$$.$$$$$$$$$$$$++$$$$$+++$$$$$OOX@",
"@XOO$$$$$+++$$$$$$++$$$$$$$$$$$$.$$$$$$$$$$$$++$$$$$+++$$$$%OOX@",
"@XOO$$$$$+++$$$$$$++$$$$$$$$$$$$.$$$$$$$$$$$$++$$$$$+++$$$$$OOX+",
"@XOO$$$$$+++$$$$$$++$$$$$$$$$$$$.$$$$$$$$$$$$++$$$$$+++$$$$$OOX@",
"@XOO$$$$$+++$$$$$$++$$$$$$$$$$$$.$$$$$$$$$$$$++$$$$$+++$$$$$OOX@",
"@XOO$$$$$+++$$$$$$++$$$$$$$$$$$$.$$$$$$$$$$$$++$$$$$+++$$$$$OOX@",
"@XOO$$$$$+++$$$$$$++$$$$$$$$$$$$.$$$$$$$$$$$$++$$$$$+++$$$$$OOX@",
"@XOO$$$$$+++$$$$$$++$$$$$$$$$$$$.$$$$$$$$$$$$++$$$$$+++$$$$$OOX@",
"@XOO$$$$$+++$$$$$$++$$$$$$$$$$$$.$$$$$$$$$$$$++$$$$$+++$$$$$OOX@",
"@XOO$$$$$+++$$$$$$++$$$$$$$$$$$$.$$$$$$$$$$$$++$$$$$+++$$$$$OOX@",
"@XOO$$$$$+++$$$$$$++$$$$$$$$$$$$.$$$$$$$$$$$$++$$$$$+++$$$$$OOX@",
"@XOO$$$$$+++$$$$$$++$$$$$$$$$$$$.$$$$$$$$$$$$++$$$$$+++$$$$$OOX@",
"@XOO$$$$$+++$$$$$$++$$$$$$$$$$$$.$$$$$$$$$$$$++$$$$$+++$$$$$OOX@",
"@XOO$$$$$+++$$$$$$++$$$$$$$$$$$$.$$$$$$$$$$$$++$$$$$+++$$$$$OOX@",
"@XOO$$$$$+++$$$$$$++$$$$$$$$$$$$.$$$$$$$$$$$$++$$$$$+++$$$$$OOX@",
"@XOO$$$$$+++$$$$$$++$$$$$$$$$$$$.$$$$$$$$$$$$++$$$$$+++$$$$$OOX@",
"@XOO$$$$$+++$$$$$$++$$$$$$$$$$$$.$$$$$$$$$$$$++$$$$$+++$$$$$OOX@",
"@XOO$$$$$+++$$$$$$++$$$$$$$$$$$$.$$$$$$$$$$$$++$$$$$+++$$$$$OOX@",
"................................................................",
"....%%%%%%%%%%%%%%%%%%%%%%%%%%%%.%%%%%%%%%%%%%%%%%%%%%%%%%%%....",
"....%%%%%%%%%%%%%%%%%%%%%%%%%%%%.%%%%%%%%%%%%%%%%%%%%%%%%%%%....",
"....%%%%%%%%%%%%%%%%%%%%%%%%%%%%.%%%%%%%%%%%%%%%%%%%%%%%%%%%....",
"................................................................",
"@XOO$$$$$+++$$$$$$++$$$$$$$$$$$$.$$$$$$$$$$$$++$$$$$+++$$$$$OOX@",
"@XOO$$$$$+++$$$$$$++$$$$$$$$$$$$.$$$$$$$$$$$$++$$$$$+++$$$$$OOX@",
"@XXXXXXXXXXXXXXXXXXXXXXXXXXXXXXX.XXXXXXXXXXXXXXXXXXXXXXXXXXXXXX@"
};
