/* XPM */
static char *b1cd4bb6d41e49b29787b27a67da0573IJM2uuUHNbhaZSKf[] = {
/* columns rows colors chars-per-pixel */
"64 64 13 1 ",
"  c None",
". c black",
"X c #181818",
"o c #222222",
"O c gray15",
"+ c #2C2C2C",
"@ c #414141",
"# c #4C4C4C",
"$ c gray31",
"% c #515151",
"& c #797979",
"* c #8E8E8E",
"= c gray59",
/* pixels */
"     $$XXXX                                        XXXX$$       ",
"     %%oooo                                        oooo%%       ",
"     %%oooo                                        oooo%%       ",
"     XXoooo                                        ooooXX       ",
"   $$oooooo                                        oooooo$$     ",
"   XXoooooo                                        ooooooXX     ",
"   Xooooooo                                        oooooooX     ",
"   Xooooooo                                        oooooooX     ",
" $XXoooooo*                                        *ooooooXX$   ",
".$Xoooooo**                                        **ooooooX$.. ",
"O$Xoooooo**                                        **ooooooX$OO ",
"O$Xoooooo**                                        **ooooooX$OO ",
"XXXoooo****                                        ****ooooXXXO ",
"Xoooooo****                                        ****ooooooXO ",
"Xoooooo****                                        ****ooooooXO ",
"Xoooooo****                                        ****ooooooXO ",
"Xoooooo****                                        ****ooooooXO ",
"Xoooooo****                                        ****ooooooX@ ",
"Xoooooo****                                        ****ooooooX& ",
"Xoooooo****                                        ****ooooooX& ",
"Xoooo##****                                        ****#$ooooX& ",
"Xoooo$#****                                        ****##ooooX$ ",
"Xoooo##****                                        ****##ooooX$ ",
"Xoooo##****                                        ****$#ooooX$ ",
"Xoooo##****                                        ****##ooooX$ ",
"Xoo**##****                                        ****##**ooX$ ",
"Xoo**##****                                        ****##**ooX$ ",
"Xoo**##****                                        ****##**ooX$ ",
"Xoo**##****                                        ****#$**ooX$ ",
"Xoo**#$**..                                        ..**$#**ooX$ ",
"Xoo**$#..==                                        ==..$#**ooX$ ",
"Xoo*...====                                        ====...*ooX$ ",
"Xo..=======                                        =======..oX$ ",
"..=======..                                        ..=======... ",
"..=====..**                                        **..=====... ",
"..==...****                                        ****...==... ",
"....*##****                                        ****#$*..... ",
"..***##****                                        ****##***... ",
"X+***#$****                                        ****##***+X$ ",
"X+***##****                                        ****$#***+X$ ",
"X+***##****                                        ****##***+X$ ",
"X+***$#****                                        ****##***+X$ ",
"X+***##****                                        ****##***+X$ ",
"X+***##****                                        ****##***+X$ ",
"X+***##****                                        ****#$***+X$ ",
"X+***##****                                        ****##***+X$ ",
"X+***##****                                        ****##***+X$ ",
"X+***##****                                        ****##***+X$ ",
"X+***##****                                        ****##***+X$ ",
"X+***##****                                        ****##***+X$ ",
"X+***##****                                        ****##***+X$ ",
"X+***##****                                        ****##***+X$ ",
"X+***$#**..                                        ..**#$***+X$ ",
"X+***#$..==                                        ==..$#***+X$ ",
"X+**...====                                        ====...**+X$ ",
"X+..=======                                        =======..+X$ ",
"..=======..                                        ..=======... ",
"..=====..**                                        **..=====... ",
"..==...****                                        ****...==... ",
"....*$#**XX                                        XX**#$*..... ",
"..***$#XX                                            XX$$***... ",
"X+**XXX                                                XXX**+X$ ",
"X+XX                                                      XX+X$ ",
"XX                                                          XX$ "
};
