/* XPM */
static char *_eecd0d9b79d4c8c8576f59f1521930eYOe7VcziWU5TdoQr[] = {
/* columns rows colors chars-per-pixel */
"64 64 29 1 ",
"  c None",
". c #5D2C2C",
"X c #5E2C2C",
"o c #5F2C2C",
"O c #5F2D2D",
"+ c #5B3232",
"@ c #602D2D",
"# c #612D2D",
"$ c #622D2D",
"% c #883838",
"& c #993030",
"* c #993131",
"= c #9A3030",
"- c #9A3131",
"; c #9B3131",
": c #9B3232",
"> c #9C3131",
", c #9C3232",
"< c #9D3232",
"1 c #9E3232",
"2 c #A04949",
"3 c #A04A4A",
"4 c #A14B4B",
"5 c #A24C4C",
"6 c #A34C4C",
"7 c #A34D4D",
"8 c #BF4040",
"9 c #C26B6B",
"0 c white",
/* pixels */
"                                                                ",
"                                        99999999999             ",
"                                      99999999999999            ",
"                                     9999999999999999           ",
"                                    999998899999999898          ",
"                                   99999988898998889988         ",
"                                  998999888898888888988         ",
"                                 99989888888988888888888        ",
"                                9999988888888888888888888       ",
"                                9999888888888888888888888       ",
"                               999888888888888888888888888      ",
"                               9998988888888%%%8%%88888888      ",
"                              999989888888%%%%%%%%%%%88888      ",
"                              99888888%%%%%++00++00%%%%888      ",
"                              9988988%+++++++00  00++00%%8      ",
"                             9998998%++++++  00  00  00 00      ",
"                             9988888%+++++   00  00  00 00      ",
"                            99988888%++++    00  00  00 00      ",
"                            9998888%++++     0    0     00      ",
"                           99988888%++++     0          00      ",
"                           %%%88888++++                         ",
"                        %%%%8888888++++                         ",
"                       %%88888888888+++                         ",
"                      %88888888888888++                         ",
"                     %8888888888888888+                         ",
"                    %%888888888888888888                        ",
"                   %%8888899888888888888                        ",
"                  %%8888  88888888888888                        ",
"                 %%8888  998888888888888                        ",
"                %%8888  99988888888888888                       ",
"               %%8888  999988888888888888                       ",
"              %%8888  9988888888888888888                       ",
"             %%88888 99998888888888888888<                      ",
"             %88888 999898888888888888888<<                     ",
"             %8888 9999898888888888888888<<<                    ",
"             %%88 99998888888888888888888<<<<                   ",
"                  99888888888888888888888oo<<<                  ",
"                 998888888888888888888888ooo<<<                 ",
"                 998888888888888888888888oooo<<<                ",
"                 99888888888888888888888   oooo<<               ",
"                 9998888888998888888888     ooooo               ",
"                 998888888889999988888                          ",
"                 998888888888888999999                          ",
"                  9888888888888888889999                        ",
"                  %%88888888888888888899999                     ",
"                  %%8888888888888888888889999                   ",
"                   %%88888888888888888888889999                 ",
"                   %%%88888888888888888889999999                ",
"                     %%%8888888888888888888889999               ",
"                     #1%%%%%%%%%%%%%%888888889999               ",
"                     #,1,777        %%%%%88889999               ",
"                     #,,,777           %%8888999                ",
"                      o:1,77          %%8888999                 ",
"                     oo=<,377         %88888999                 ",
"                    oo==<<333        %%8888999                  ",
"                   oo=*===337        %88888999                  ",
"                  o.=:*===33        %%8888999                   ",
"                o@o:=***333         %%888999                    ",
"               @@====**33           %8888999                    ",
"              @@,,====43            %888999                     ",
"              @<<<===33             %888999                     ",
"              $<<<<<33              %%8899                      ",
"              $@<<<33                %889                       ",
"               $<<<3                                            "
};
