/* XPM */
static char *f67f285fc3b642b8ed6c91daa331fe1bvJeC4YKT6unFWDWv[] = {
/* columns rows colors chars-per-pixel */
"64 64 24 1 ",
"  c None",
". c #5C2C2C",
"X c #5D2C2C",
"o c #5E2C2C",
"O c #5F2C2C",
"+ c #5F2D2D",
"@ c #5B3232",
"# c #602D2D",
"$ c #612D2D",
"% c #622D2D",
"& c #632E2E",
"* c #883838",
"= c #993131",
"- c #9A3030",
"; c #9A3131",
": c #9B3131",
"> c #9C3232",
", c #9D3232",
"< c #9E3232",
"1 c #9F3232",
"2 c #A03232",
"3 c #BF4040",
"4 c #C26B6B",
"5 c white",
/* pixels */
"                                        44444444444             ",
"                                      44444444444444            ",
"                                     4444444444444444           ",
"                                    444443344444444343          ",
"                                   44444433343443334433         ",
"                                  443444333343333333433         ",
"                                 44434333333433333333333        ",
"                                4444433333333333333333333       ",
"                                4444333333333333333333333       ",
"                               444333333333333333333333333      ",
"                               4443433333333***3**33333333      ",
"                              444434333333***********33333      ",
"                              44333333*****@@55@@55****333      ",
"                              4433433*@@@@@@@55  55@@55**3      ",
"                             4443443*@@@@@@  55  55  55 55      ",
"                             4433333*@@@@@   55  55  55 55      ",
"                            44433333*@@@@    55  55  55 55      ",
"                            4443333*@@@@     5    5     55      ",
"                           44433333*@@@@     5          55      ",
"                           ***33333@@@@                         ",
"                    ********3333333@@@@                         ",
"                 ***3**3333333333333@@@                         ",
"               ***3333333333333333333@@                         ",
"             ***3333333333333333333333@                         ",
"           **333333333    4333333333333                         ",
"          **3333333       44333333333331      ;;;;X             ",
"          **33333         333333333333321;  ;;;;;XX             ",
"          *333           44333333333333111111;;..XX             ",
"                        444333333333333#211#O;XX.               ",
"                       4444333333333333&##X#O#X                 ",
"                      44333333333333333                         ",
"                     4444333333333333333                        ",
"                   344434333333333333333                        ",
"                  4444434333333333333333                        ",
"                 34444333333333333333333                        ",
"                443433333333333333333333                        ",
"               4443333333333333333333333                        ",
"               444333333333333333333333  4444                   ",
"              4333333333333333344444444444444444                ",
"              44333333333334444444433333333344444               ",
"              343333333333334333333333333333334444              ",
"             *3333*33333333333333333333333333334444             ",
"             *3333*333333333333333333333333333344444            ",
"             33333**333333333333333333333333333334444           ",
"            *33333**33333333333333333333******33334444          ",
"           *333333***3333333333333333****    **33334344         ",
"          **3333344***33333333333*****        **33333434        ",
"         **333333444 ***3333333***             **333333444      ",
"        **33333443     ***3***                  **333333444     ",
"       **33333444                                **333333444    ",
"      **33333344                                  **3333334443  ",
"    **333333344                                    **3333334444 ",
"   **333333334                                      **3333334443",
"   *3333333444                                       **333333433",
"  *3333333444                                          **3333333",
" *3333334344                                            ***3333 ",
"*3333344444                                              *****  ",
"333334444                                                       ",
"33343444                                                        ",
" 344444                                                         ",
"  444                                                           ",
"                                                                ",
"                                                                ",
"                                                                "
};
