/* XPM */
static char *_a1998d03e6144a8f33e7fe711b06292yiAtYUENLmgk9hdS[] = {
/* columns rows colors chars-per-pixel */
"64 64 147 2 ",
"   c None",
".  c #010101",
"X  c #090909",
"o  c gray11",
"O  c #252525",
"+  c #282728",
"@  c #2C2C2C",
"#  c #343434",
"$  c #393838",
"%  c #454544",
"&  c #4F4D4D",
"*  c #545454",
"=  c #575956",
"-  c #5C5C5C",
";  c #5B635B",
":  c #646464",
">  c #666B64",
",  c #6D6D6D",
"<  c #706F6F",
"1  c #737373",
"2  c #777877",
"3  c #777878",
"4  c #7C7C7C",
"5  c #7F807F",
"6  c #80827F",
"7  c #848484",
"8  c #878888",
"9  c #8C8C8C",
"0  c #908F8F",
"q  c #939393",
"w  c #989797",
"e  c #9C9C9C",
"r  c #A09F9F",
"t  c #A09FA0",
"y  c #A4A3A4",
"u  c #A8A7A7",
"i  c #ABABAB",
"p  c #B0AFAF",
"a  c #A9B3A9",
"s  c #B4B3B3",
"d  c #B4BCB5",
"f  c #B7B7B8",
"g  c #BBBBBB",
"h  c #C0BEBF",
"j  c #C0BFC0",
"k  c #C3C3C3",
"l  c #C8C6C6",
"z  c #CCCBCB",
"x  c #D0CDD0",
"c  c #D3D1D2",
"v  c #D3D2D2",
"b  c #D0D0D0",
"n  c #D3D4D3",
"m  c #D5D5D5",
"M  c #D6D5D5",
"N  c gray84",
"B  c #D7D6D7",
"V  c #D3D2D3",
"C  c #D7D7D8",
"Z  c #D9D9D9",
"A  c #D9DADA",
"S  c gray86",
"D  c #DBDADB",
"F  c #DDDBDC",
"G  c #DEDDDE",
"H  c #DDDEDE",
"J  c gray87",
"K  c #DFDEDE",
"L  c #DBDCDC",
"P  c #E0DFDF",
"I  c #E0DFDF",
"U  c #E0E8DF",
"Y  c #E1E1E1",
"T  c #E3E2E2",
"R  c gray89",
"E  c #E4E3E3",
"W  c #E6E3E6",
"Q  c #E6E5E5",
"!  c #E6E5E6",
"~  c #E7E5E6",
"^  c #E6E6E6",
"/  c #E7E7E7",
"(  c #E4E4E4",
")  c #E8E5E6",
"_  c #EBE5E8",
"`  c gray91",
"'  c #E9E8E9",
"]  c #E9E9E9",
"[  c #EAE9E9",
"{  c #E9EAE9",
"}  c #EAE9EA",
"|  c #EAEAEA",
" . c gray92",
".. c #ECEBEB",
"X. c #EDECED",
"o. c gray93",
"O. c #EEEEEE",
"+. c #EFEEEF",
"@. c #EFEFEF",
"#. c #ECECEC",
"$. c #F0EEEF",
"%. c #F1EFEF",
"&. c #F0EEEF",
"*. c #F1EFF0",
"=. c #F0EFF0",
"-. c #F1F0F0",
";. c #F1F0F1",
":. c #F1F1F1",
">. c #F2F0F1",
",. c #F3F1F2",
"<. c #F1F2F2",
"1. c gray95",
"2. c #F3F3F3",
"3. c #F5F3F4",
"4. c #F5F4F4",
"5. c #F7F5F6",
"6. c #F6F6F6",
"7. c #F7F6F7",
"8. c gray97",
"9. c #F4F4F4",
"0. c #F7F7F8",
"q. c #F8F7F8",
"w. c #F9F7F8",
"e. c #F8F8F8",
"r. c #F9F8F9",
"t. c #F9F9F9",
"y. c #FAF8F9",
"u. c #FBF9FA",
"i. c gray98",
"p. c #FBFAFB",
"a. c #FBFBFB",
"s. c #FCFAFB",
"d. c #FDFAFB",
"f. c #FCFBFC",
"g. c gray99",
"h. c #FDFCFC",
"j. c #FDFCFD",
"k. c #FEFCFD",
"l. c #FEFCFE",
"z. c #FEFDFE",
"x. c #FFFDFE",
"c. c #FEFEFE",
"v. c #FFFEFE",
"b. c #FEFFFE",
"n. c #FFFEFF",
"m. c white",
"M. c #FFFEFE",
/* pixels */
"                                                                                                                                ",
"                                                                                                                                ",
"                                                                                                                                ",
"                                                                                                                                ",
"                                                                                                                                ",
"                                                                                                                                ",
"                                                          , , r k B B k w                                                       ",
"                                                          8 ( m.m.m.m.m.m.8.                                                    ",
"                                                      - +.) X.m.m.m.m.m.f.m.m.                                                  ",
"                                                      ( p f.m.m.m.m.m.f.m.m.m.m.                                                ",
"                                                    _ 2 u m.f.m.f.m.m.m.m.m.m.m.B                                               ",
"                                                  z t 9 m.m.m.m.m.m.m.f.f.m.m.f.m.                                              ",
"                                                9 M 1 m.m.m.m.m.m.m.f.m.m.m.m.m.m.s                                             ",
"                                                k e h m.f.m.m.f.m.f.m.m.m.f.m.m.8.]                                             ",
"                                                z 5 m.m.m.m.m.f.m.m.m.m.m.m.f.m.8.m.7                                           ",
"                                                &.z m.m.f.m.m.m.m.f.m.f.m.m.m.m.i.i.y                                           ",
"                                              k g z m.m.m.m.m.m.m.m.m.m.m.m.m.m.m.:.k                                           ",
"                                              b e z m.m.m.j W m.m.m.m.2., s m.m.m.X.(                                           ",
"                                              W X.m.m.m.g X * q.m.f.m.e . # ] m.m.X.i.7                                         ",
"                                              8.8.m.m.m.3 O O j m.m.m., @ + s m.m.:.i.q             i.m.s                       ",
"                                            9 :.*.m.m.m.< @ + i m.m.m.- $ O e m.m.8.:.f           m.m.m.m.                      ",
"                                            q :.X.m.m.m.2 O + g m.m.f.= $ O u m.m.f./ 2.        X.m.m.m.m.G                     ",
"                              f T k         9 X.m.m.m.m.g X $ X.m.m.m.< . @ T m.m.m.] m.q 7     m.m.i.m.m.m.                    ",
"                            m.m.m.m.g       u ] f.m.m.f.m.r k m.m.m.m.F - f m.m.m.m.q.:.f w , 4 m.m.3.z q.m.9                   ",
"                          m.m.m.2.i.m.: , w q ) m.f.m.m.m.m.m.f.m.m.f.m.m.m.m.m.m.m.m.X.*.3 z u m.m.m.1 k m.z                   ",
"                        g m.m.m.y 7 m.( g x x m.m.m.f.m.m.m.m.m.f.m.m.m.m.m.m.m.m.f.m.f.*.A s m.q.m.m.8 k m.m.                  ",
"                        X.m.] T A g m.m.m.m.m.m.m.m.m.m.m.f.m.m.m.m.m.m.m.m.f.m.m.m.m.m.u.*.b #.d.m.m.k B i.X.L                 ",
"                        m.m.k 7 m.s A m.m.m.m.f.f.m.f.m.m.m.f.m.m.9 k m.m.f.m.m.m.f.m.m.m.m.) ] m.m.b 7 u m.G m.                ",
"                      9 m.m.z 7 m.4 e m.m.m.m.m.m.m.m.f.m.m.m.f.f.- u m.f.m.f.m.m.f.m.f.m.m.m.m.m.m.0 5 w m.T ( m.              ",
"                      u m.f.A 7 m.g 7 m.m.m.m.m.f.m.m.m.f.m.m.m.m.m.m.m.m.m.m.m.m.m.m.m.m.m.f k m.( w i 7 m.m.m.u               ",
"                      G m.] ] 7 T ] 7 q.m.g G m.m.f.m.f.m.f.m.f.m.m.m.m.m.m.f.m.m.f.m.m.f.m.9 y m.z q g q i.y                   ",
"                      m.m.] i.7 f m.7 x m.: s m.m.m.m.m.m.m.m.m.m.f.m.f.m.f.m.m.m.m.f.m.m.m.2.i.m.u q G , *                     ",
"                      t u 8.m.e w m.9 u g.z T m.m.m.m.m.f.m.f.m.m.m.m.f.m.m.f.m.f.m.m.m.m.m.p z m.0 u Z % >                     ",
"                      1 % $ y 7 7 m.y 8 m.t A m.m.f.m.f.m.m.m.m.m.f.m.m.m.m.m.m.m.m.m.f.m.m.4 u m.4 f q.u                       ",
"                                w m.A 7 g., k m.m.m.m.m.m.m.f.m.m.m.m.f.m.m.m.f.f.m.m.m.*.m.8 i i.9 z z                         ",
"                                    t 9 ] 4 z m.m.f.m.m.d.m.m.m.m.f.m.m.*.z f.m.m.f.m.m.f s 9 g ] -                             ",
"                                  * : * B 9 z m.m.m.m.y k m.m.m.f.m.m.m.I < *.m.m.m.f.m.u q e b k                               ",
"                                    U = p q z m.m.m.m.4 s m.m.f.m.m.m.m.X.5 _ m.m.f.m.m.f q e C f                               ",
"                                    8 2 T 7 z m.m.m.m.7 g m.m.m.m.m.m.m.8.4 G m.m.m.m.m.f 8 w b m.                              ",
"                                  & : / 8.4 z m.m.m.m.8 j m.f.f.m.m.m.m.i.4 b m.m.m.m.m.g 0 y b                                 ",
"                                  ; q.f.T 5 z m.m.m.m.7 k m.m.m.f.M &.m.m.3 z m.m.m.m.m.g q q -                                 ",
"                                    z f.T 4 z m.m.m.m.7 k m.m.m.f.: x m.m.4 g m.m.m.m.m.k 3 -                                   ",
"                                    = z m.7 z f.m.m.m.7 z m.m.m.f.i ( m.m.5 s m.m.m.m.m.k 1                                     ",
"                                      * 7 7 x m.m.m.m.7 z m.m.m.m.m.9.m.m.7 u m.m.m.f.m.g 7                                     ",
"                                        o : I i.m.m.f.7 z m.( m.( u 0.m.m.7 y m.m.m.m.m.i w                                     ",
"                                          7 V :.m.m.q.7 Z i.7 i.b , m.m.m.8 e i.:.m.m.m.y y                                     ",
"                                          , T ( 8.m.8.7 S 8.9 f.b 7 m.m.m.9 e i.T } } i.f 1                                     ",
"                                          2 m.( E f.3.8 A X.z m.k 7 m.m.m.q w m.( T T f.g                                       ",
"                                          g m.R R X.A 7 E G 7 m.l 7 m.m.m.w 0 m.( ( ( g.y                                       ",
"                                            G m.m.m.( 8 / A 4 m.k 7 m.m.m.e 8 m.( ( ( m.e                                       ",
"                                                9 9 7 7 8.B 4 m.j 8 m.m.m.r 7 m./ ( R m.                                        ",
"                                                * a ; : m.b 7 m.g 8 m.m.m.u 7 a.( 2.m.u                                         ",
"                                                  d : f m.z 7 m.g 8 m.m.i.W G a.m.z                                             ",
"                                                  % g m.@.z 7 m.f 8 m.m.m.j b k                                                 ",
"                                                  y m.T @.z 7 m.f 8 i.m.m.u                                                     ",
"                                                    z :.m.A 8 m.p 9 8.X.m.u                                                     ",
"                                                        q w q m.f 8 8.T m.w                                                     ",
"                                                          - 2 m.g 7 8.( 8.u                                                     ",
"                                                              i.g 7 @./ m.t                                                     ",
"                                                              8.l 4 a.m.u =                                                     ",
"                                                              i 8.q (                                                           ",
"                                                                t 8 -                                                           ",
"                                                                                                                                ",
"                                                                                                                                "
};
