/* XPM */
static char *_9527675225848a6f07c3459e51f1c39KOaIO5xWR0hfNVYw[] = {
/* columns rows colors chars-per-pixel */
"64 64 147 2 ",
"   c None",
".  c #010101",
"X  c #090909",
"o  c gray11",
"O  c #252525",
"+  c #282728",
"@  c #2C2C2C",
"#  c #343434",
"$  c #393838",
"%  c #454544",
"&  c #4F4D4D",
"*  c #545454",
"=  c #575956",
"-  c #5C5C5C",
";  c #5B635B",
":  c #646464",
">  c #666B64",
",  c #6D6D6D",
"<  c #706F6F",
"1  c #737373",
"2  c #777877",
"3  c #777878",
"4  c #7C7C7C",
"5  c #7F807F",
"6  c #80827F",
"7  c #848484",
"8  c #878888",
"9  c #8C8C8C",
"0  c #908F8F",
"q  c #939393",
"w  c #989797",
"e  c #9C9C9C",
"r  c #A09F9F",
"t  c #A09FA0",
"y  c #A4A3A4",
"u  c #A8A7A7",
"i  c #ABABAB",
"p  c #B0AFAF",
"a  c #A9B3A9",
"s  c #B4B3B3",
"d  c #B4BCB5",
"f  c #B7B7B8",
"g  c #BBBBBB",
"h  c #C0BEBF",
"j  c #C0BFC0",
"k  c #C3C3C3",
"l  c #C8C6C6",
"z  c #CCCBCB",
"x  c #D0CDD0",
"c  c #D3D1D2",
"v  c #D3D2D2",
"b  c #D0D0D0",
"n  c #D3D4D3",
"m  c #D5D5D5",
"M  c #D6D5D5",
"N  c gray84",
"B  c #D7D6D7",
"V  c #D3D2D3",
"C  c #D7D7D8",
"Z  c #D9D9D9",
"A  c #D9DADA",
"S  c gray86",
"D  c #DBDADB",
"F  c #DDDBDC",
"G  c #DEDDDE",
"H  c #DDDEDE",
"J  c gray87",
"K  c #DFDEDE",
"L  c #DBDCDC",
"P  c #E0DFDF",
"I  c #E0DFDF",
"U  c #E0E8DF",
"Y  c #E1E1E1",
"T  c #E3E2E2",
"R  c gray89",
"E  c #E4E3E3",
"W  c #E6E3E6",
"Q  c #E6E5E5",
"!  c #E6E5E6",
"~  c #E7E5E6",
"^  c #E6E6E6",
"/  c #E7E7E7",
"(  c #E4E4E4",
")  c #E8E5E6",
"_  c #EBE5E8",
"`  c gray91",
"'  c #E9E8E9",
"]  c #E9E9E9",
"[  c #EAE9E9",
"{  c #E9EAE9",
"}  c #EAE9EA",
"|  c #EAEAEA",
" . c gray92",
".. c #ECEBEB",
"X. c #EDECED",
"o. c gray93",
"O. c #EEEEEE",
"+. c #EFEEEF",
"@. c #EFEFEF",
"#. c #ECECEC",
"$. c #F0EEEF",
"%. c #F1EFEF",
"&. c #F0EEEF",
"*. c #F1EFF0",
"=. c #F0EFF0",
"-. c #F1F0F0",
";. c #F1F0F1",
":. c #F1F1F1",
">. c #F2F0F1",
",. c #F3F1F2",
"<. c #F1F2F2",
"1. c gray95",
"2. c #F3F3F3",
"3. c #F5F3F4",
"4. c #F5F4F4",
"5. c #F7F5F6",
"6. c #F6F6F6",
"7. c #F7F6F7",
"8. c gray97",
"9. c #F4F4F4",
"0. c #F7F7F8",
"q. c #F8F7F8",
"w. c #F9F7F8",
"e. c #F8F8F8",
"r. c #F9F8F9",
"t. c #F9F9F9",
"y. c #FAF8F9",
"u. c #FBF9FA",
"i. c gray98",
"p. c #FBFAFB",
"a. c #FBFBFB",
"s. c #FCFAFB",
"d. c #FDFAFB",
"f. c #FCFBFC",
"g. c gray99",
"h. c #FDFCFC",
"j. c #FDFCFD",
"k. c #FEFCFD",
"l. c #FEFCFE",
"z. c #FEFDFE",
"x. c #FFFDFE",
"c. c #FEFEFE",
"v. c #FFFEFE",
"b. c #FEFFFE",
"n. c #FFFEFF",
"m. c white",
"M. c #FFFEFE",
/* pixels */
"                                                                                                                                ",
"                                                                                                                                ",
"                                                                                                                                ",
"                                                                                                                                ",
"                                                                                                                                ",
"                                                                                                                                ",
"                                                                                                                                ",
"                                                        , , e l N N k e                                                         ",
"                                                        7 / n.n.n.n.n.n.8.                                                      ",
"                                                    - @.` @.n.n.n.n.n.n.n.n.                                                    ",
"                                                    ) p s.n.n.n.n.n.n.n.n.n.n.                                                  ",
"                                                  _ 1 u n.n.n.n.n.n.n.n.n.n.n.n                                                 ",
"                                                z y 9 n.n.n.n.n.n.n.n.n.n.n.n.n.                                                ",
"                                              9 N 1 n.n.n.n.n.n.n.n.n.n.n.n.n.n.f                                               ",
"                                              k e h n.n.n.n.n.n.n.n.n.n.n.n.n.4.|                                               ",
"                                              z 4 n.n.n.n.n.n.n.n.n.n.n.n.n.n.8.n.7                                             ",
"                                              %.z n.n.n.n.n.n.n.n.n.n.n.n.n.n.t.t.y                                             ",
"                                            k g z n.n.n.n.n.n.n.n.n.n.n.n.n.n.n.-.l                                             ",
"                                            b e z n.n.n.k ( n.n.n.n.-.< f n.n.n. .(                                             ",
"                                            W o.n.n.n.g X * 8.n.n.n.e . # | n.n.o.t.7             t.n.s                         ",
"                                            8.8.n.n.n.3 O + k n.n.n., @ + p n.n.-.n.0           n.n.n.n.                        ",
"                                          0 -.o.n.n.n.< @ + u n.n.n.- $ O e n.n.0.<.g         @.n.n.n.n.G                       ",
"                                          q @.@.n.n.n.2 O + g n.n.n.= $ + i n.n.g./ -.        n.n.q.n.n.n.                      ",
"                            f R k         9 @.n.n.n.n.g . $ o.n.n.n.< . @ R n.n.n.| n.q 7 , 3 n.n.8.z t.n.9                     ",
"                          n.n.n.n.g       u ) n.n.n.n.n.r k n.n.n.n.G - f n.n.n.n.8.-.f e z y n.n.n.< k n.z                     ",
"                        n.n.n.4.g.n.: , w q ` n.n.n.n.n.n.n.n.n.n.n.n.n.n.n.n.n.n.n.o.-.2 s n.t.n.n.8 k n.n.                    ",
"                      g n.n.n.y 7 n.( g b x n.n.n.n.n.n.n.n.n.n.n.n.n.n.n.n.n.n.n.n.f.%.A n  .n.n.n.j N n.o.S                   ",
"                      o.n.| Y A f n.n.n.n.n.n.n.n.n.n.n.n.n.n.n.n.n.n.n.n.n.n.n.n.n.n.t.-.( | n.n.n 6 u n.G n.                  ",
"                      n.n.l 7 n.s L n.n.n.n.n.n.n.n.n.n.n.n.n.n.9 k n.n.n.n.n.n.n.n.n.n.n.n.n.n.n.q 5 e n.I / n.                ",
"                    0 n.n.z 7 n.6 e n.n.n.n.n.n.n.n.n.n.n.n.n.n.- u n.n.n.n.n.n.n.n.n.n.n.f k n.( q i 7 g.n.n.u                 ",
"                    u n.a.S 7 n.g 7 n.n.n.n.n.n.n.n.n.n.n.n.n.n.n.n.n.n.n.n.n.n.n.n.n.n.n.9 y n.z q g q n.y                     ",
"                    G n.| | 7 Y | 5 q.n.g P n.n.n.n.n.n.n.n.n.n.n.n.n.n.n.n.n.n.n.n.n.n.n.4.t.n.u q G , *                       ",
"                    n.n.| t.7 g n.8 z n.: s n.n.n.n.n.n.n.n.n.n.n.n.n.n.n.n.n.n.n.n.n.n.n.s z n.0 y Z % >                       ",
"                    y u -.n.e q n.9 u a.z Y n.n.n.n.n.n.n.n.n.n.n.n.n.n.n.n.n.n.n.n.n.n.n.3 u n.5 f t.u                         ",
"                    1 % % e 7 7 n.r 9 n.r L n.n.n.n.n.n.n.n.n.n.n.n.n.n.n.n.n.n.n.n.n.n.n.8 p t.9 b z                           ",
"                              e n.A 7 a., l n.n.n.n.n.n.n.n.n.n.n.n.n.n.n.n.n.n.n.n.n.-.n.9 g | -                               ",
"                                  r 8 ` 5 z n.n.n.n.n.s.n.n.n.n.n.n.n.-.z s.n.n.n.n.n.f s e z k                                 ",
"                                * : * N 8 z n.n.n.n.y k n.n.n.n.n.n.n.Y < @.n.n.n.n.n.u q e A f                                 ",
"                                  U = s q z n.n.n.n.3 s n.n.n.n.n.n.n.o.5 ) n.n.n.n.n.s q q b n.                                ",
"                                  8 3 Y 7 z n.n.n.n.8 g n.n.n.n.n.n.n.,.4 U n.n.n.n.n.g 8 y b                                   ",
"                                & > ` 8.4 z n.n.n.n.7 k n.n.n.n.n.n.n.g.3 b n.n.n.n.n.g 9 q -                                   ",
"                                - q.a.Y 4 z n.n.n.n.7 l n.n.n.n.N o.n.n.3 z n.n.n.n.n.j q -                                     ",
"                                  x n.Y 4 z n.n.n.n.7 l n.n.n.a.: n n.n.4 j n.n.n.n.n.k 3                                       ",
"                                  = z n.7 z n.n.n.n.4 z n.n.n.t.i ( n.n.6 s n.n.n.n.n.k 1                                       ",
"                                    * 7 7 b n.n.n.n.7 z n.n.n.n.n.9.n.n.7 u n.n.n.n.n.g 7                                       ",
"                                      o > G t.n.n.n.7 z n./ n.( u 0.n.n.8 r n.n.n.n.n.a q                                       ",
"                                        7 m -.n.n.t.7 Z t.7 t.b , n.n.n.8 e a.9.n.n.n.y u                                       ",
"                                        , R ( 8.n.8.7 A 8.9 t.b 6 n.n.n.9 e a.R | | e.s 1                                       ",
"                                        1 n.R ( n.4.7 S o.b n.l 7 n.n.n.q q n.( R Y a.g                                         ",
"                                        g n.( R  .A 7 ( G 7 n.l 7 n.n.n.w q n.( ( ( n.y                                         ",
"                                          G n.n.n.Y 8 | A 3 n.k 8 n.n.n.e 9 n.( ( ( n.e                                         ",
"                                              9 9 6 7 8.N 7 n.j 7 n.n.n.e 7 n.( ( ( n.                                          ",
"                                              * a ; : n.b 7 n.g 8 n.n.n.u 7 t.( <.n.u                                           ",
"                                                d > f n.z 7 n.f 8 n.n.t.( G t.n.z                                               ",
"                                                % g n.o.z 7 n.f 8 n.n.n.j b l                                                   ",
"                                                y n.( o.z 7 n.f 9 t.n.n.u                                                       ",
"                                                  z -.n.A 8 f.a 9 e.o.n.i                                                       ",
"                                                      q w q n.s 8 e.Y n.w                                                       ",
"                                                        - 3 n.g 8 4.( t.u                                                       ",
"                                                            0.g 7 o.` n.y                                                       ",
"                                                            -.l 4 g.n.u *                                                       ",
"                                                            s 9.0 /                                                             ",
"                                                              y 8 -                                                             ",
"                                                                                                                                "
};
