/* XPM */
static char *b1ad5cdacb1446e1df041006661181dezaB11XAjKRGSOvFG[] = {
/* columns rows colors chars-per-pixel */
"64 64 146 2 ",
"   c None",
".  c #010101",
"X  c #090909",
"o  c gray11",
"O  c #252525",
"+  c #282728",
"@  c #2C2C2C",
"#  c #343434",
"$  c #393838",
"%  c #454544",
"&  c #4F4D4D",
"*  c #545454",
"=  c #575956",
"-  c #5C5C5C",
";  c #5B635B",
":  c #646464",
">  c #666B64",
",  c #6D6D6D",
"<  c #706F6F",
"1  c #737373",
"2  c #777877",
"3  c #777878",
"4  c #7C7C7C",
"5  c #7F807F",
"6  c #80827F",
"7  c #848484",
"8  c #878888",
"9  c #8C8C8C",
"0  c #908F8F",
"q  c #939393",
"w  c #989797",
"e  c #9C9C9C",
"r  c #A09F9F",
"t  c #A09FA0",
"y  c #A4A4A4",
"u  c #A8A7A7",
"i  c #ABABAB",
"p  c #B0AFAF",
"a  c #A9B3A9",
"s  c #B4B3B4",
"d  c #B4BCB5",
"f  c #B7B7B8",
"g  c #BCBBBB",
"h  c #C0BEBF",
"j  c #C0BFC0",
"k  c #C3C3C3",
"l  c #C8C6C6",
"z  c #CBCBCB",
"x  c #D0CDD0",
"c  c #D3D2D2",
"v  c #D3D1D2",
"b  c #D3D4D3",
"n  c #D5D5D5",
"m  c #D6D5D5",
"M  c gray84",
"N  c #D7D6D7",
"B  c #D2D2D2",
"V  c #D7D7D8",
"C  c #D9D9D9",
"Z  c #D9DADA",
"A  c gray86",
"S  c #DBDADB",
"D  c #DDDBDC",
"F  c #DEDDDE",
"G  c #DDDEDE",
"H  c gray87",
"J  c #DFDEDE",
"K  c #DBDCDC",
"L  c #E0DFDF",
"P  c #E0DFDF",
"I  c #E0E8DF",
"U  c #E1E0E0",
"Y  c #E1E1E1",
"T  c #E3E2E2",
"R  c gray89",
"E  c #E4E3E3",
"W  c #E6E3E6",
"Q  c #E6E5E6",
"!  c #E7E5E6",
"~  c #E6E6E6",
"^  c #E7E7E7",
"/  c #E4E4E4",
"(  c #E8E5E6",
")  c #EBE5E8",
"_  c gray91",
"`  c #E9E8E9",
"'  c #E9E9E9",
"]  c #EAE9E9",
"[  c #E9EAE9",
"{  c #EAE9EA",
"}  c #EAEAEA",
"|  c gray92",
" . c #ECEBEB",
".. c #EDECED",
"X. c gray93",
"o. c #EEEEEE",
"O. c #EFEEEF",
"+. c #EFEFEF",
"@. c #ECECEC",
"#. c #F0EEEF",
"$. c #F1EFEF",
"%. c #F0EEEF",
"&. c #F0EFF0",
"*. c #F1EFF0",
"=. c #F1F0F0",
"-. c #F1F0F1",
";. c #F1F1F1",
":. c #F2F0F1",
">. c #F3F1F2",
",. c #F1F2F2",
"<. c gray95",
"1. c #F3F3F3",
"2. c #F5F3F4",
"3. c #F5F4F4",
"4. c #F7F5F6",
"5. c #F6F6F6",
"6. c #F7F6F7",
"7. c gray97",
"8. c #F4F4F4",
"9. c #F7F7F8",
"0. c #F8F7F8",
"q. c #F9F7F8",
"w. c #F8F8F8",
"e. c #F9F8F9",
"r. c #F9F9F9",
"t. c #FAF8F9",
"y. c #FBF9FA",
"u. c gray98",
"i. c #FBFAFB",
"p. c #FBFBFB",
"a. c #FCFAFB",
"s. c #FDFAFB",
"d. c #FCFBFC",
"f. c gray99",
"g. c #FDFCFC",
"h. c #FDFCFD",
"j. c #FEFCFD",
"k. c #FEFCFE",
"l. c #FEFDFE",
"z. c #FFFDFE",
"x. c #FEFEFE",
"c. c #FFFEFE",
"v. c #FEFFFE",
"b. c #FFFEFF",
"n. c white",
"m. c #FEFEFE",
/* pixels */
"                                                                                                                                ",
"                                                                                                                                ",
"                                                                                                                                ",
"                                                                                                                                ",
"                                                                                                                                ",
"                                                                                                                                ",
"                                                        , , r k M M l e                                                         ",
"                                                        7 ^ n.n.n.n.n.n.5.                                                      ",
"                                                    - &.) X.d.n.n.n.n.d.n.n.                                                    ",
"                                                    ) p i.n.n.n.n.n.n.n.n.n.n.                                                  ",
"                                                  ) 1 u n.n.d.n.n.d.n.d.n.n.n.M                                                 ",
"                                                l y 9 n.n.n.n.n.n.n.n.n.n.n.d.n.                                                ",
"                                              9 M 1 n.n.d.n.n.n.n.d.d.n.n.n.n.n.f                                               ",
"                                              k e g n.n.n.n.n.d.n.n.n.n.n.d.n.2.'                                               ",
"                                              z 4 n.n.n.d.n.d.n.n.n.n.n.n.d.n.4.n.7                                             ",
"                                              $.x n.n.n.n.n.n.n.d.n.d.n.n.n.n.u.u.y                                             ",
"                                            k f z n.n.n.n.n.n.n.n.n.n.n.n.n.n.n.&.l                                             ",
"                                            c e z n.n.n.k W n.n.n.n.&.< s n.n.n.' ^                                             ",
"                                            W X.n.n.n.g X * 5.n.n.n.e . # ..n.n.X.u.7                                           ",
"                                            5.u.n.n.n.3 O O g n.n.n., @ O s n.n.;.f.q           u.n.s                           ",
"                                          9 ;.&.n.n.n.< @ + u n.n.n.- $ O e n.n.5.;.f         n.n.n.n.                          ",
"                                          q ;.X.n.n.n.1 + + g n.n.d.= $ O u n.n.i._ 8.      X.n.n.n.n.J                         ",
"                          f U k           9 X.n.n.d.n.g . $ X.n.n.n.< . @ ^ n.n.n.' n.q 7   n.n.u.n.n.n.                        ",
"                        n.n.n.n.f         u ^ n.n.n.n.n.y k n.n.n.n.D - s n.n.n.n.5.;.f w 3 n.n.2.z 0.n.9                       ",
"                      n.n.n.2.u.n.: , , w q ) n.n.d.n.n.n.n.n.d.n.d.n.n.n.n.n.n.n.n...&.3 y n.n.n.1 k n.z                       ",
"                    g n.n.n.y 7 n.^ g f x x n.n.n.n.n.n.n.d.n.n.n.n.n.n.n.d.d.n.n.n.d.$.S n.u.n.n.7 k n.n.                      ",
"                    X.n.' U S f n.n.n.f n.n.d.n.n.n.d.n.n.n.n.n.n.n.n.n.n.n.n.n.n.d.n.0.&.| n.n.n.j M f.X.J                     ",
"                    n.n.l 7 n.f S n.n.g n.n.n.n.n.d.n.n.n.d.n.n.9 k n.n.d.n.d.n.n.n.n.n.n.) n.n.b 7 y n.J n.                    ",
"                  9 n.n.z 7 n.4 e n.n.n.n.n.d.n.d.n.n.n.d.n.n.n.- i n.n.n.d.n.n.d.n.n.n.n.n.n.n.9 7 e n.U ^ n.                  ",
"                  u n.d.S 7 n.f 7 n.n.n.n.n.n.n.n.n.n.d.n.n.n.d.n.d.n.n.n.n.d.n.n.n.n.d.n.c n.^ w i 7 f.n.n.u                   ",
"                  J n.' ' 7 U ' 7 u.n.f.f P n.n.d.n.d.n.d.n.d.n.n.n.n.d.n.n.n.n.d.n.n.n.n.c n.l q h q i.y                       ",
"                  n.n.' u.7 f n.7 z n.f.: s n.n.n.n.n.n.n.n.n.n.n.d.n.n.d.n.d.n.n.n.n.n.n.w.n.i q P > *                         ",
"                  r u ;.n.e w n.9 u f.f.z U n.n.d.n.d.n.d.n.d.n.n.d.n.n.n.n.n.n.n.n.n.n.n.z n.9 u S % >                         ",
"                  1 % % e 7 7 n.r 9 n.n.y S n.n.n.n.n.n.n.n.n.n.n.n.d.n.n.d.n.d.d.n.d.n.n.u n.6 f 0.u                           ",
"                            e n.Z 6 f.f., l n.n.n.n.n.n.n.n.d.n.n.n.n.n.n.n.d.n.n.n.n.&.n.i a.9 z z                             ",
"                                r 9 _ f.4 z n.n.d.n.n.d.n.d.n.n.d.n.n.&.z d.n.d.n.n.n.f s f ' -                                 ",
"                              * : * n i.9 z n.n.n.n.y k n.n.n.n.n.n.n.U < ;.n.n.d.n.n.u q z k                                   ",
"                                I = p f.q l n.n.n.n.4 p n.d.n.d.n.n.n.X.5 ) n.n.n.n.n.s q S s                                   ",
"                                8 3 W f.7 z n.n.n.n.8 g n.n.d.n.n.n.n.;.4 P n.n.n.n.n.g 9 z n.                                  ",
"                              & > _ w.f.5 l n.n.n.n.7 k n.n.n.n.n.n.n.d.3 c n.n.n.n.n.g 9 b                                     ",
"                              - 9.f.f.f.5 z n.n.n.n.7 k n.n.n.n.v &.n.n.3 l n.n.n.n.n.g q -                                     ",
"                                z n.f.i.4 z n.n.n.n.7 l n.n.n.i.: x n.n.4 h n.n.n.n.n.k 3                                       ",
"                                = l n.n.7 z n.n.n.n.7 l n.n.n.u.i ^ n.n.6 s n.n.n.n.n.k 1                                       ",
"                                  * 7 l 7 x n.n.n.n.7 z n.n.n.n.n.1.n.n.7 u n.n.n.n.n.f 7                                       ",
"                                    o * : P u.n.n.n.7 z n.^ n./ u 5.n.n.7 e n.n.n.n.n.i q                                       ",
"                                        6 b ;.n.n.0.7 N u.7 4.B , n.n.n.8 r f.;.n.n.n.u u                                       ",
"                                        , U ^ 5.n.5.7 A 5.9 u.x 7 n.n.n.9 e n.U ' { u.f 1                                       ",
"                                        1 n.T T u.5.8 A X.x n.l 7 n.n.n.q q n.^ U T i.g                                         ",
"                                        g n.R R | S 7 ^ S 7 n.l 7 n.n.n.e 9 n./ / ^ f.y                                         ",
"                                          J n.n.n./ 7 _ S 3 n.k 8 n.n.n.e 9 n./ / / n.e                                         ",
"                                              0 9 6 7 5.M 7 n.k 7 n.n.n.e 7 n.^ / / n.                                          ",
"                                              * a ; : n.c 7 n.g 8 n.n.n.y 7 u./ ;.n.u                                           ",
"                                                d : f n.z 7 n.f 9 n.n.u./ G p.n.l                                               ",
"                                                % g n.X.z 7 n.f 8 n.n.d.j c l                                                   ",
"                                                u n.^ X.l 7 n.f 9 u.n.n.u                                                       ",
"                                                  l &.n.K 8 n.i 9 5.' n.i                                                       ",
"                                                      q q q n.f 9 5.U n.q                                                       ",
"                                                        - 2 n.f 9 ;.^ u.u                                                       ",
"                                                            u.g 7 +.^ n.y                                                       ",
"                                                            ;.l 3 a.n.u =                                                       ",
"                                                            i 5.9 ^                                                             ",
"                                                              y 9 -                                                             ",
"                                                                                                                                ",
"                                                                                                                                "
};
